<?xml version="1.0" standalone="no"?>
<!DOCTYPE svg PUBLIC "-//W3C//DTD SVG 20010904//EN"
 "http://www.w3.org/TR/2001/REC-SVG-20010904/DTD/svg10.dtd">
<svg version="1.0" xmlns="http://www.w3.org/2000/svg"
 width="772.000000pt" height="198.000000pt" viewBox="0 0 772.000000 198.000000"
 preserveAspectRatio="xMidYMid meet">

<g transform="translate(0.000000,198.000000) scale(0.100000,-0.100000)"
fill="#000000" stroke="none">
<path d="M2156 1923 c-3 -3 -6 -435 -6 -960 0 -840 2 -953 15 -953 13 0 15
113 15 954 0 525 -4 957 -9 960 -4 3 -11 3 -15 -1z"/>
<path d="M971 1546 c-13 -16 -361 -1225 -361 -1254 0 -22 30 -52 52 -52 45 0
54 26 227 638 94 332 171 616 171 631 0 15 -5 32 -12 39 -16 16 -63 15 -77 -2z"/>
<path d="M5587 1504 c-4 -4 -7 -95 -7 -202 l0 -195 -43 40 c-24 22 -64 48 -90
58 -65 24 -164 17 -233 -18 -213 -108 -259 -461 -84 -651 118 -127 331 -142
447 -31 26 25 47 44 49 42 1 -1 9 -19 18 -40 26 -63 113 -90 229 -71 l37 7 0
116 c0 111 -1 117 -22 126 l-23 10 -5 405 -5 405 -131 3 c-71 1 -133 -1 -137
-4z m-87 -533 c60 -31 80 -72 80 -161 0 -76 -1 -79 -35 -108 -112 -99 -270 7
-236 158 12 52 34 86 74 110 40 25 73 25 117 1z"/>
<path d="M3165 1458 c-2 -7 -6 -166 -7 -353 -3 -322 -4 -342 -24 -375 -11 -19
-31 -41 -45 -47 -35 -19 -112 -16 -174 6 l-55 19 -9 -36 c-6 -20 -19 -72 -30
-115 l-19 -79 56 -26 c53 -25 67 -27 187 -27 121 0 134 2 192 29 87 40 145
104 174 192 22 66 23 87 27 447 l4 377 -136 0 c-100 0 -138 -3 -141 -12z"/>
<path d="M6272 1219 c-95 -12 -229 -61 -247 -88 -6 -11 65 -173 74 -168 79 43
151 70 200 74 102 9 161 -25 161 -93 l0 -31 -52 14 c-108 29 -249 3 -335 -63
-75 -57 -110 -170 -79 -259 22 -67 55 -106 117 -140 47 -26 64 -30 134 -30 93
0 148 21 214 80 23 21 43 36 45 34 1 -2 8 -19 16 -37 22 -57 63 -77 155 -77
120 0 115 -5 115 127 0 108 -1 114 -22 123 -22 9 -23 17 -30 155 -9 200 -34
262 -127 322 -82 52 -214 74 -339 57z m151 -440 c33 -9 37 -13 37 -44 0 -50
-8 -64 -51 -85 -100 -52 -203 8 -158 91 22 42 98 59 172 38z"/>
<path d="M3820 1204 c-70 -19 -124 -51 -178 -105 -141 -144 -141 -411 1 -553
76 -76 183 -116 307 -116 264 0 440 192 410 448 -19 161 -140 294 -300 331
-63 15 -175 12 -240 -5z m207 -246 c43 -40 55 -75 51 -147 -2 -49 -9 -75 -26
-98 -48 -67 -156 -67 -204 0 -32 45 -37 157 -10 206 38 71 134 90 189 39z"/>
<path d="M4870 1207 c-19 -6 -61 -37 -93 -69 -32 -32 -60 -58 -63 -58 -2 0 -4
27 -4 60 l0 60 -125 0 -125 0 0 -380 0 -380 140 0 140 0 0 228 c0 208 2 230
18 245 26 23 92 45 162 53 l61 7 -3 121 -3 121 -35 2 c-19 1 -51 -4 -70 -10z"/>
<path d="M7302 1205 c-67 -19 -84 -28 -133 -72 l-39 -35 0 56 0 57 -117 -3
-118 -3 -3 -382 -2 -383 135 0 135 0 0 217 c0 208 1 218 23 250 29 43 95 78
130 69 57 -14 62 -37 65 -298 l3 -238 135 0 135 0 -3 308 c-3 307 -3 308 -29
357 -15 30 -42 62 -67 79 -35 25 -52 30 -119 33 -48 2 -98 -3 -131 -12z"/>
<path d="M202 1057 c-78 -78 -142 -149 -142 -158 0 -20 282 -299 303 -299 24
0 57 36 57 61 0 14 -37 60 -105 129 -58 58 -105 110 -105 116 0 5 47 56 105
114 58 58 105 113 105 122 0 23 -35 58 -58 58 -9 0 -81 -64 -160 -143z"/>
<path d="M1237 1182 c-31 -34 -19 -55 88 -162 58 -58 105 -109 105 -114 0 -6
-47 -58 -105 -116 -80 -81 -105 -113 -105 -133 0 -31 39 -62 68 -53 10 3 77
66 150 139 98 99 132 140 132 158 0 19 -35 60 -138 162 -142 140 -164 154
-195 119z"/>
</g>
</svg>
